<svg width="214" height="190" viewBox="0 0 214 190" fill="none" xmlns="http://www.w3.org/2000/svg">
<g clip-path="url(#clip0)">
<path opacity="0.1" d="M208.796 110.142C208.796 110.286 208.796 110.43 208.796 110.572C208.773 113.061 208.637 115.544 208.389 118.021C208.39 118.036 208.39 118.051 208.389 118.066C208.37 118.271 208.348 118.475 208.326 118.681C208.289 119.029 208.25 119.374 208.206 119.722C207.699 123.955 206.859 128.134 205.696 132.212C204.138 137.723 201.935 142.993 199.142 147.894C198.283 149.393 197.368 150.843 196.397 152.245C195.879 152.988 195.35 153.715 194.803 154.429C194.42 154.929 194.029 155.421 193.632 155.906L193.384 156.204C191.291 158.701 189.035 161.03 186.634 163.174C182.715 166.704 178.496 169.775 174.209 172.624C173.965 172.787 173.719 172.948 173.473 173.097C173.455 173.111 173.437 173.123 173.418 173.133C167.592 176.961 161.55 180.415 155.325 183.181C148.51 186.217 141.474 188.424 134.254 189.39C124.19 190.734 114.005 189.641 104.003 187.762C95.6843 186.209 87.4663 184.075 79.4001 181.374L78.0719 180.922C77.3839 180.684 76.6966 180.441 76.0101 180.193C71.8631 178.702 67.7626 177.046 63.7086 175.224C53.5267 170.667 43.7997 164.991 34.6793 158.286C33.5181 157.437 32.3736 156.57 31.2457 155.683C29.6694 154.45 28.112 153.18 26.5734 151.874L25.6241 151.074C21.5976 147.648 17.8251 143.883 14.3416 139.814C9.65611 134.273 5.65214 128.022 3.01984 120.886C2.60471 119.764 2.22442 118.622 1.87896 117.457L1.8463 117.342C1.67212 116.75 1.51101 116.159 1.36295 115.543C1.14523 114.663 0.954355 113.772 0.790335 112.87C0.755499 112.697 0.725018 112.524 0.696713 112.349C0.176325 109.313 -0.0535109 106.226 0.0108784 103.138C0.0653326 100.433 0.356952 97.739 0.881779 95.0937C1.41895 92.3514 2.24675 89.686 3.34861 87.1509C4.34435 84.8712 5.61307 82.7447 7.12178 80.8264C8.18195 79.4853 9.37422 78.2746 10.6772 77.2159C13.0396 75.3041 15.6588 73.972 18.3738 72.9191C19.6497 72.4223 20.943 71.9869 22.2428 71.5823C23.1638 71.2937 24.0891 71.0192 25.0101 70.7495L27.7273 69.9521C29.4691 69.4363 31.2109 68.9063 32.9266 68.3338C37.6033 66.7816 42.1864 64.903 46.4256 62.1016C47.0961 61.6592 47.7798 61.1741 48.4635 60.6536C49.3344 59.9958 50.1922 59.2813 51.0413 58.51C51.8992 57.7292 52.7396 56.894 53.5408 56.0091C53.6649 55.8718 53.7868 55.7346 53.9088 55.595C54.5619 54.8473 55.1955 54.0642 55.7834 53.2503C56.0708 52.8528 56.3495 52.4482 56.6151 52.0365C56.9831 51.4663 57.3314 50.8866 57.6536 50.2903C59.2692 47.3091 60.2663 44.0203 60.1488 40.5541C60.1316 39.983 60.0843 39.4134 60.0073 38.8482C59.7242 36.759 59.4521 34.7194 59.2518 32.7249C58.4113 24.4745 58.7662 16.9931 64.4641 9.96358C71.5489 1.2258 82.6681 -0.555826 92.7902 0.142156C122.055 2.15329 148.695 20.3103 172.107 41.9264C174.132 43.794 176.132 45.6868 178.108 47.6049C178.606 48.0876 179.104 48.5734 179.604 49.0624C183.305 52.6848 186.95 56.442 190.344 60.4667C190.618 60.7932 190.893 61.1197 191.163 61.4486C191.328 61.6521 191.496 61.8532 191.659 62.059C192.717 63.3603 193.744 64.6932 194.74 66.0576C197.407 69.6798 199.763 73.5607 201.777 77.6512C204.861 84.0707 206.948 90.9993 207.956 98.1577C208.335 100.757 208.584 103.377 208.703 106.006C208.74 106.78 208.764 107.556 208.777 108.329C208.777 108.578 208.777 108.824 208.777 109.072C208.799 109.432 208.799 109.782 208.796 110.142Z" fill="#DA251C"/>
<path d="M85.7794 106.173L82.2958 173.556L85.7794 173.606L88.6098 105.227L85.7794 106.173Z" fill="#3F3D56"/>
<path d="M72.9336 140.313H29.824V150.487H72.9336V140.313Z" fill="#DA251C"/>
<path d="M75.764 149.302V155.69H31.2327C29.6564 154.457 28.0989 153.187 26.5603 151.881V149.302H75.764Z" fill="#3F3D56"/>
<path d="M84.6559 134.763C84.534 135.375 84.3751 135.981 84.2074 136.584C83.7132 138.328 83.1188 140.048 83.0034 141.861C82.8488 144.255 83.4388 147.04 81.9148 148.779C81.5229 149.229 81.0112 149.565 80.6607 150.045C80.6067 150.12 80.5572 150.199 80.5126 150.281C80.1991 150.845 80.1621 151.531 80.1577 152.174C80.1614 153.547 80.2436 154.918 80.4038 156.279C80.9198 160.964 81.9387 165.658 80.5997 170.08C80.3571 170.847 80.0743 171.599 79.7528 172.331C79.0996 173.892 78.3876 175.432 78.1742 177.124C78.0175 178.378 78.0654 179.67 78.0567 180.945C77.3687 180.707 76.6814 180.464 75.9948 180.217C71.8479 178.726 67.7474 177.07 63.6933 175.248C63.7042 175.184 63.7151 175.118 63.7238 175.054C64.0352 172.948 63.6084 170.795 63.0902 168.741C62.0016 164.39 60.4601 160.082 59.5479 155.7C59.1805 153.988 58.9395 152.248 58.8272 150.494C58.8011 150.102 58.7858 149.707 58.7836 149.311C58.7728 148.796 58.7836 148.28 58.8032 147.759C58.849 146.721 58.8903 145.488 58.1261 144.856C57.7059 144.513 57.1507 144.454 56.6608 144.246C55.7159 143.846 55.0692 142.918 54.3203 142.175C53.963 141.799 53.5268 141.522 53.0492 141.37C52.5716 141.217 52.0671 141.193 51.5791 141.3C46.6846 142.519 43.0878 147.031 38.533 149.311C38.3567 149.401 38.1803 149.486 38.0018 149.567C37.4126 149.801 36.8518 150.113 36.3318 150.494C35.9664 150.77 35.7014 151.176 35.5828 151.642C35.4674 152.144 35.5676 152.669 35.6242 153.185C35.7158 154.023 35.6827 154.872 35.5262 155.7C35.4672 156.02 35.3894 156.336 35.2933 156.646C35.1191 157.207 34.8861 157.756 34.664 158.302C33.5028 157.454 32.3583 156.586 31.2305 155.7C29.6542 154.466 28.0967 153.196 26.5581 151.89L25.6241 151.074C21.5976 147.648 17.8251 143.883 14.3416 139.814C14.8053 138.394 15.4759 137.074 15.7981 135.619C15.981 134.784 16.0485 133.916 16.3011 133.104C16.5923 132.263 16.9974 131.473 17.5029 130.762C19.3543 127.956 21.6151 125.498 24.1958 123.484C26.8934 121.383 30.0091 119.698 32.4367 117.313C33.4219 116.376 34.2712 115.282 34.9558 114.069C34.9972 113.996 35.0363 113.918 35.0712 113.833C35.2607 113.404 35.392 112.949 35.4609 112.479C35.6351 111.419 35.609 110.255 35.696 109.238C38.6534 109.794 41.6683 109.893 44.6511 109.531C48.1238 109.108 51.5203 108.06 54.993 107.653C55.2543 107.619 55.5178 107.593 55.7812 107.57C56.8938 107.473 58.0085 107.451 59.1255 107.466C60.0595 107.466 60.9935 107.511 61.9276 107.544L72.2108 107.922C73.3495 107.965 74.5121 108.012 75.5724 108.464C76.8309 109.001 77.8389 110.071 78.6467 111.247C78.749 111.398 78.8514 111.549 78.9472 111.706C79.6118 112.759 80.1449 113.904 80.5322 115.11C80.5736 115.233 80.6128 115.347 80.6498 115.482C80.7478 115.811 80.8327 116.142 80.9089 116.478C80.9677 116.741 81.0199 117.003 81.0678 117.268C81.3073 118.579 81.4488 119.918 81.8277 121.184C81.8538 121.276 81.8821 121.368 81.9126 121.458C82.3676 122.845 83.1232 124.087 83.6936 125.419C84.1049 126.383 84.4188 127.393 84.6298 128.431C85.0563 130.515 85.0652 132.675 84.6559 134.763Z" fill="#35323E"/>
<path d="M53.3993 50.089C52.4805 49.294 51.148 49.876 50.0725 50.3894C49.1707 50.8223 48.2424 51.1867 47.2943 51.4802C47.1002 51.5613 46.8899 51.585 46.6846 51.5488C46.2492 51.4352 46.0663 50.8745 45.7419 50.5338C45.178 49.9446 44.2548 50.0842 43.5276 50.4036C42.8004 50.7231 42.0819 51.1844 41.3025 51.1135C40.4708 51.0425 39.7479 50.3753 38.9075 50.354C37.427 50.3161 36.1838 52.2988 34.7838 51.7736C33.9303 51.4542 33.2597 50.2475 32.4193 50.5906C31.7661 50.8603 31.7073 51.8422 31.3132 52.4834C30.8495 53.2311 29.9459 53.4416 29.173 53.7729C26.7367 54.8187 25.1233 57.7691 25.4412 60.5942C25.6175 62.1534 26.3121 63.5825 26.7715 65.0707C28.1345 69.3982 27.6663 74.2793 29.3842 78.453C29.6019 78.2306 29.7238 78.1478 29.935 77.9278C29.3919 79.152 29.2871 80.5519 29.6411 81.8554C29.8218 82.5108 30.1158 83.1212 30.3378 83.7624C30.5685 84.4816 30.7547 85.2167 30.8952 85.9628L32.7894 95.0437C33.5297 98.5928 34.2721 102.142 34.4006 105.776C34.4806 108.139 34.314 110.504 33.9042 112.827C37.3355 112.209 40.4751 110.555 43.9522 110.577C45.2281 110.577 46.493 110.813 47.758 111.003C51.4461 111.563 55.1663 111.838 58.8903 111.824C59.4695 111.859 60.0495 111.771 60.5973 111.563C61.0763 111.341 61.4682 110.946 61.9211 110.66C62.8072 110.092 63.8806 109.95 64.9017 109.95C69.5589 109.857 74.0462 111.71 78.6729 112.363C80.4996 108.197 80.6084 103.204 79.2063 98.8483C78.7904 97.5541 78.2309 96.293 78.0654 94.9325C77.999 94.0962 77.9815 93.2561 78.0131 92.4174C78.0059 90.2702 77.6499 88.1412 76.9615 86.1285C76.6915 85.3406 76.3671 84.5385 76.3954 83.6985C76.4237 82.8586 76.8048 82.0754 77.1793 81.3325C77.9391 79.8182 78.7033 78.2898 79.7767 77.0121C80.8762 75.6919 82.2522 74.6863 83.613 73.6997L86.9725 71.2484C86.5131 68.0945 85.9209 64.7726 84.6908 61.8718C83.4606 58.9711 81.6208 56.3045 79.1322 54.6081C78.2932 54.0596 77.4152 53.5849 76.5065 53.1885C75.235 52.6064 73.9112 52.093 72.533 52.0055C70.9654 51.9084 69.4217 52.3651 67.8737 52.649C63.001 53.541 57.2661 53.4322 53.3993 50.089Z" fill="#DA251C"/>
<path d="M90.1339 104.82L88.5358 107.014L85.5225 111.147L82.0389 115.924L81.0657 117.258H79.178L32.4345 117.318L3.16139 117.353H1.85503C1.68085 116.762 1.51974 116.17 1.37168 115.555C1.15396 114.675 0.963086 113.784 0.799066 112.881C0.76423 112.709 0.733749 112.536 0.705444 112.361L11.3261 104.816L15.3192 104.792L27.5336 104.716L34.3549 104.674H35.6003H36.3819L40.928 104.648L75.5768 104.432L77.3491 104.42H78.1177L80.1534 104.409L87.7281 104.361L89.1825 103.76L89.2892 103.883L90.1339 104.82Z" fill="#3F3D56"/>
<path d="M89.4807 103.637L89.3 103.874L88.1112 105.395L85.664 108.535L80.5322 115.11L35.0712 113.849L0.790335 112.903C0.755499 112.73 0.725018 112.557 0.696713 112.382C0.176325 109.346 -0.0535109 106.259 0.0108784 103.171L3.81236 101.056L4.68326 100.569L11.4611 96.7829L17.4093 93.4705L32.9244 95.6614L36.3601 96.1464L37.9147 96.3641L40.1899 96.6859L40.3815 96.7143L76.0601 101.742L80.0031 102.298L82.3176 102.625L89.4502 103.633L89.4807 103.637Z" fill="#504F60"/>
<path d="M82.0781 114.994L82.0411 115.924L81.8234 121.174L80.652 150.04L80.4038 156.279L79.7506 172.33L79.3827 181.397L78.0545 180.945C77.3665 180.707 76.6792 180.464 75.9927 180.216L79.178 117.28L79.2455 115.959L80.6476 115.486L82.0781 114.994Z" fill="#3F3D56"/>
<path d="M3.26154 114.926L3.16356 117.355L3.01987 120.905C2.60474 119.783 2.22444 118.64 1.87899 117.476L1.84633 117.36C1.67215 116.769 1.51103 116.177 1.36298 115.562L3.26154 114.926Z" fill="#3F3D56"/>
<path d="M60.1967 79.1511C65.728 79.1511 70.212 72.5834 70.212 64.4817C70.212 56.38 65.728 49.8123 60.1967 49.8123C54.6654 49.8123 50.1813 56.38 50.1813 64.4817C50.1813 72.5834 54.6654 79.1511 60.1967 79.1511Z" fill="#A1616A"/>
<path opacity="0.1" d="M60.1967 79.1511C65.728 79.1511 70.212 72.5834 70.212 64.4817C70.212 56.38 65.728 49.8123 60.1967 49.8123C54.6654 49.8123 50.1813 56.38 50.1813 64.4817C50.1813 72.5834 54.6654 79.1511 60.1967 79.1511Z" fill="black"/>
<path d="M61.6119 70.7516C69.3077 70.7516 75.5463 63.972 75.5463 55.609C75.5463 47.2459 69.3077 40.4663 61.6119 40.4663C53.9161 40.4663 47.6775 47.2459 47.6775 55.609C47.6775 63.972 53.9161 70.7516 61.6119 70.7516Z" fill="#A1616A"/>
<path d="M61.8884 32.2703C61.0377 32.3441 60.1929 32.484 59.3606 32.6891C57.1573 33.2712 55.2522 34.563 53.3971 35.8312C52.5654 36.4014 51.7098 36.9953 51.1938 37.8329C50.2662 39.3353 50.6255 41.2471 50.1051 42.9151C49.8352 43.7717 49.3387 44.5406 48.9185 45.338C47.7624 47.5242 47.1571 49.9257 46.5627 52.3036C46.4408 52.7957 46.406 53.4629 46.9002 53.6522C47.1848 53.7165 47.4809 53.68 47.745 53.5481C49.3061 52.9874 51.2896 52.8265 52.4479 53.9646C53.6062 55.1026 53.5082 57.1208 54.8864 57.9868C56.4649 58.9876 58.9295 57.7786 60.3622 58.9593C60.9762 59.4656 61.1982 60.2771 61.7012 60.8876C62.8725 62.3072 65.126 62.2386 67.0006 61.9523C68.0762 61.7867 69.3956 61.6755 70.0488 62.4965C70.3623 62.8845 70.4516 63.4169 70.8152 63.767C71.4683 64.4011 72.6636 64.0794 73.3016 63.4287C73.9395 62.778 74.2443 61.8979 74.7756 61.1668C75.8098 59.7471 77.6278 58.9735 78.6946 57.5704C79.5873 56.3874 79.8573 54.9062 80.1011 53.4771L81.009 48.1796C81.377 46.0312 81.7123 43.6841 80.5997 41.7913C80.2035 41.1099 79.6352 40.5231 79.2934 39.818C79.0648 39.3448 78.9363 38.8456 78.6707 38.3984C78.3557 37.9325 77.9794 37.5196 77.5538 37.1728L75.4048 35.2397C74.6701 34.5408 73.8844 33.9078 73.0555 33.3469C69.9878 31.4044 65.3938 31.9154 61.8884 32.2703Z" fill="#464353"/>
<path d="M15.9919 71.2768C15.4759 71.873 14.9991 72.5166 14.446 73.075C13.9596 73.5451 13.4508 73.9874 12.922 74.3999C12.0685 75.094 11.2339 75.8125 10.4181 76.5554C9.56708 77.2866 8.79699 78.1227 8.12331 79.0468C6.96065 80.7433 6.40981 82.8538 5.32118 84.607C4.35884 86.1615 3.00241 87.3895 2.02482 88.9321C1.59595 89.5807 1.2774 90.3075 1.08425 91.0781C0.940071 91.824 0.875055 92.5853 0.890473 93.3472C0.870877 94.5964 0.85346 95.8599 1.0886 97.0831C1.32375 98.3064 1.83975 99.5083 2.72372 100.31C3.54454 101.056 4.60487 101.399 5.64342 101.683C6.17902 101.827 6.75817 101.962 7.26764 101.732C7.64045 101.528 7.96405 101.231 8.21257 100.866L10.8623 97.554C12.6346 95.3299 14.4765 93.0585 16.9085 91.7572C17.6706 91.3526 18.474 91.0474 19.2382 90.6546C22.4779 88.9582 24.7684 85.4848 25.6567 81.6992C25.8744 80.774 26.0138 79.83 26.1553 78.8859L26.5385 76.2975C26.5679 76.1677 26.5679 76.0321 26.5385 75.9024C26.4785 75.7565 26.3819 75.6318 26.2598 75.5427C24.4142 73.923 22.6861 72.1511 21.091 70.2428C20.7122 69.7885 20.3573 69.1663 19.9197 68.7853C19.371 68.3121 19.4124 68.3476 18.7527 68.7853C17.7378 69.4836 16.8099 70.321 15.9919 71.2768Z" fill="#A1616A"/>
<path d="M34.1175 88.5018C34.0955 88.4468 34.0635 88.3973 34.0234 88.3561C33.9833 88.3149 33.9359 88.283 33.8842 88.2622C33.8325 88.2414 33.7774 88.2322 33.7223 88.2351C33.6672 88.2381 33.6132 88.2531 33.5636 88.2792C33.5139 88.3054 33.4697 88.3422 33.4335 88.3874C33.3973 88.4326 33.3699 88.4853 33.3529 88.5424C33.3359 88.5994 33.3296 88.6596 33.3346 88.7193C33.3395 88.779 33.3555 88.837 33.3816 88.8898L33.1639 89.0057L39.6564 103.467L40.83 102.845L34.3374 88.374L34.1175 88.5018Z" fill="#3F3D56"/>
<path opacity="0.04" d="M15.9919 71.2768C15.4759 71.873 14.9991 72.5166 14.446 73.075C13.9596 73.5451 13.4508 73.9874 12.922 74.3999C12.0685 75.094 11.2339 75.8125 10.4181 76.5554C9.56708 77.2866 8.79699 78.1227 8.12331 79.0468C6.96065 80.7433 6.40981 82.8538 5.32118 84.607C4.35884 86.1615 3.00241 87.3895 2.02482 88.9321C1.59595 89.5807 1.2774 90.3075 1.08425 91.0781C0.940071 91.824 0.875055 92.5853 0.890473 93.3472C0.870877 94.5964 0.85346 95.8599 1.0886 97.0831C1.32375 98.3064 1.83975 99.5083 2.72372 100.31C3.54454 101.056 4.60487 101.399 5.64342 101.683C6.17902 101.827 6.75817 101.962 7.26764 101.732C7.64045 101.528 7.96405 101.231 8.21257 100.866L10.8623 97.554C12.6346 95.3299 14.4765 93.0585 16.9085 91.7572C17.6706 91.3526 18.474 91.0474 19.2382 90.6546C22.4779 88.9582 24.7684 85.4848 25.6567 81.6992C25.8744 80.774 26.0138 79.83 26.1553 78.8859L26.5385 76.2975C26.5679 76.1677 26.5679 76.0321 26.5385 75.9024C26.4785 75.7565 26.3819 75.6318 26.2598 75.5427C24.4142 73.923 22.6861 72.1511 21.091 70.2428C20.7122 69.7885 20.3573 69.1663 19.9197 68.7853C19.371 68.3121 19.4124 68.3476 18.7527 68.7853C17.7378 69.4836 16.8099 70.321 15.9919 71.2768Z" fill="black"/>
<path d="M91.0505 97.9278C91.0287 99.4373 90.9743 100.992 90.3973 102.369C90.1491 102.965 89.7638 103.552 89.1868 103.748C88.8376 103.836 88.4763 103.85 88.1221 103.791C83.8505 103.383 79.5463 103.754 75.3873 104.889C76.4977 102.475 75.8598 99.5816 76.1668 96.9033C76.2517 96.1722 76.4063 95.4529 76.4651 94.7194C76.6828 92.1168 75.6573 89.5899 75.187 87.0204C74.7788 84.7961 74.7788 82.5061 75.187 80.2819C75.2671 79.7093 75.4483 79.159 75.7205 78.6612C76.0394 78.1767 76.4585 77.7804 76.9441 77.5042C78.7077 76.4134 80.7869 76.288 82.7682 76.4323C84.1029 76.5294 86.7787 76.3921 87.8913 77.2841C89.1084 78.2613 89.4938 81.543 89.8225 83.0596C90.3148 85.3857 90.6495 87.7478 90.8241 90.127C91.0375 92.7201 91.0832 95.3252 91.0505 97.9278Z" fill="#A1616A"/>
<path d="M13.0592 103.167L20.8973 108.845L56.1688 107.425L32.8722 103.167H13.0592Z" fill="white"/>
<path d="M23.3946 58.0483C22.1078 59.281 21.017 60.7337 19.7977 62.0469C18.1256 63.8498 16.2249 65.383 14.3328 66.9091C15.0112 67.1151 15.6287 67.5091 16.1249 68.0525C16.621 68.5958 16.9788 69.2698 17.1633 70.0086C17.246 70.3564 17.2874 70.7184 17.381 71.0591C17.5987 71.8659 18.0777 72.5616 18.5915 73.1886C20.7993 75.8929 23.8888 77.8946 25.1908 81.2331C25.2333 81.3955 25.3254 81.5374 25.4521 81.6353C25.558 81.6863 25.6757 81.7011 25.7895 81.6779C26.9674 81.543 27.8688 80.5115 28.62 79.5083C30.1876 77.3788 31.5484 75.027 32.3213 72.4291C33.0942 69.8311 33.2183 66.9588 32.3757 64.3845C31.9555 63.1021 31.3067 61.9238 30.6622 60.7574C30.0976 59.7368 29.5344 58.7179 28.9727 57.7005C28.6787 57.1634 28.3043 56.0726 27.7273 55.8076C26.4819 55.2256 24.1936 57.1799 23.3946 58.0483Z" fill="#DA251C"/>
<path d="M87.5234 73.3402L89.3762 78.0723C87.3592 77.3064 85.2034 77.0733 83.0871 77.3921C80.9707 77.711 78.9546 78.5727 77.2054 79.906C76.1494 80.727 75.1805 81.7586 74.7037 83.0694C74.4684 83.118 74.2252 83.0934 74.0022 82.9983C73.7791 82.9033 73.5853 82.7418 73.4431 82.5323C73.1644 82.1075 73.0028 81.6052 72.9772 81.0843C72.8052 79.2671 73.4387 77.4855 74.0658 75.7867C74.3575 74.9917 74.658 74.1802 75.1762 73.5342C75.6944 72.8883 76.3824 72.4624 77.0704 72.0602C79.2653 70.741 81.5642 69.6372 83.9396 68.7619C84.9412 68.4094 85.9906 68.4165 86.5523 69.4339C87.2033 70.6477 87.0139 72.0484 87.5234 73.3402Z" fill="#DA251C"/>
<path d="M13.1049 87.5385C13.5687 87.9407 13.9758 88.4162 14.4526 88.7995C14.9569 89.18 15.4935 89.5073 16.0551 89.7767L18.2019 90.8982C18.8671 91.274 19.5632 91.5813 20.2811 91.8162C21.1999 92.0836 22.1645 92.1096 23.0876 92.3581C24.2524 92.6704 25.3171 93.3211 26.4645 93.6973C27.6119 94.0735 28.9553 94.135 29.9133 93.3518C30.512 92.862 30.9649 92.0529 31.7074 91.9322C32.1863 91.8636 32.6479 92.1144 33.0747 92.3581L38.6615 95.5499C39.4148 95.9805 40.2117 96.4584 40.6058 97.2794C40.9999 98.1005 40.7342 99.3474 39.9047 99.5603C39.6156 99.5964 39.3248 99.6146 39.0338 99.6147C38.7464 99.6526 38.4329 99.8371 38.3937 100.152C38.3922 100.347 38.4396 100.539 38.5309 100.708C38.7812 101.332 38.8553 102.08 38.5635 102.686C38.2718 103.292 37.5555 103.668 36.9828 103.396C37.0808 104.311 36.1642 104.953 35.3477 105.196C33.288 105.809 31.1043 105.433 28.9988 105.045C28.1715 104.893 27.3311 104.737 26.5777 104.335C26.2163 104.143 25.881 103.897 25.5152 103.72C24.5115 103.235 23.3707 103.299 22.2733 103.32C17.1981 103.417 12.1665 102.395 7.17624 101.377C6.25091 101.188 5.29945 100.987 4.50911 100.431C2.98503 99.3521 2.41895 97.1375 2.66933 95.1784C2.91972 93.2193 3.83416 91.4448 4.73337 89.7223L5.8982 87.4911C6.05047 87.1493 6.2636 86.8437 6.52525 86.592C8.23875 85.17 11.6374 86.2561 13.1049 87.5385Z" fill="#A1616A"/>
<path opacity="0.04" d="M13.1049 87.5385C13.5687 87.9407 13.9758 88.4162 14.4526 88.7995C14.9569 89.18 15.4935 89.5073 16.0551 89.7767L18.2019 90.8982C18.8671 91.274 19.5632 91.5813 20.2811 91.8162C21.1999 92.0836 22.1645 92.1096 23.0876 92.3581C24.2524 92.6704 25.3171 93.3211 26.4645 93.6973C27.6119 94.0735 28.9553 94.135 29.9133 93.3518C30.512 92.862 30.9649 92.0529 31.7074 91.9322C32.1863 91.8636 32.6479 92.1144 33.0747 92.3581L38.6615 95.5499C39.4148 95.9805 40.2117 96.4584 40.6058 97.2794C40.9999 98.1005 40.7342 99.3474 39.9047 99.5603C39.6156 99.5964 39.3248 99.6146 39.0338 99.6147C38.7464 99.6526 38.4329 99.8371 38.3937 100.152C38.3922 100.347 38.4396 100.539 38.5309 100.708C38.7812 101.332 38.8553 102.08 38.5635 102.686C38.2718 103.292 37.5555 103.668 36.9828 103.396C37.0808 104.311 36.1642 104.953 35.3477 105.196C33.288 105.809 31.1043 105.433 28.9988 105.045C28.1715 104.893 27.3311 104.737 26.5777 104.335C26.2163 104.143 25.881 103.897 25.5152 103.72C24.5115 103.235 23.3707 103.299 22.2733 103.32C17.1981 103.417 12.1665 102.395 7.17624 101.377C6.25091 101.188 5.29945 100.987 4.50911 100.431C2.98503 99.3521 2.41895 97.1375 2.66933 95.1784C2.91972 93.2193 3.83416 91.4448 4.73337 89.7223L5.8982 87.4911C6.05047 87.1493 6.2636 86.8437 6.52525 86.592C8.23875 85.17 11.6374 86.2561 13.1049 87.5385Z" fill="black"/>
<path d="M79.5677 91.6272C78.4333 92.2092 77.1313 92.266 75.9469 92.7132C74.7625 93.1604 73.7566 93.9648 72.6702 94.6202C69.8397 96.3379 66.5738 96.9862 63.3667 97.6038C61.4225 97.9823 59.4477 98.3609 57.4882 98.271C54.8363 98.148 52.2889 97.1874 49.7197 96.4633C47.1506 95.7393 44.4094 95.2519 41.8642 96.0659C40.5351 96.5056 39.3201 97.2796 38.3176 98.3249C37.3152 99.3703 36.5536 100.658 36.0945 102.083C35.561 103.784 35.487 105.618 35.5893 107.411C36.125 107.839 36.8739 107.245 37.1657 106.595C37.4574 105.944 37.6164 105.147 38.1825 104.768C39.1644 105.13 39.4039 106.552 40.2138 107.255C40.719 107.695 41.3939 107.811 42.0362 107.91L45.3456 108.421C46.1425 108.544 47.0678 108.627 47.6448 108.017C47.9257 107.721 48.0802 107.307 48.3372 106.99C48.8641 106.356 49.7437 106.247 50.5275 106.332C52.9747 106.597 55.2695 108.322 57.6994 107.913C58.5354 107.773 59.3127 107.385 60.1096 107.08C64.832 105.267 70.0792 106.37 74.9933 105.331C76.8679 104.936 78.6728 104.236 80.456 103.498C81.4249 103.098 82.4046 102.679 83.232 102.002C84.0158 101.347 84.634 100.487 85.0285 99.5016C85.4229 98.5164 85.5809 97.4384 85.4876 96.3687C85.3054 94.7385 84.5569 93.2455 83.3953 92.195C83.0121 91.8401 82.5092 91.1611 82.0498 90.9386C81.1723 90.5199 80.3123 91.2462 79.5677 91.6272Z" fill="#A1616A"/>
<g opacity="0.1">
<path opacity="0.1" d="M73.2058 61.4009C72.8422 61.0507 72.7529 60.5184 72.4394 60.1304C71.7862 59.3093 70.4668 59.4205 69.3912 59.5862C67.5166 59.8724 65.2544 59.9387 64.0918 58.5214C63.5888 57.911 63.3668 57.1018 62.7528 56.5931C61.3201 55.4101 58.8555 56.6215 57.277 55.6207C55.8988 54.7476 55.9881 52.7223 54.8385 51.5984C53.6889 50.4745 51.6967 50.6212 50.1356 51.182C49.8715 51.3138 49.5754 51.3503 49.2908 51.2861C48.7966 51.0968 48.8314 50.4296 48.9533 49.9374C49.5477 47.5596 50.153 45.1581 51.3091 42.9718C51.7293 42.1745 52.2258 41.4055 52.4957 40.549C52.9682 39.0489 52.7265 37.3525 53.347 35.9329C52.6808 36.4061 52.0407 36.9219 51.6292 37.5891C50.7017 39.0915 51.0609 41.0033 50.5406 42.6713C50.2706 43.5278 49.7742 44.2968 49.354 45.0942C48.1978 47.2804 47.5926 49.6819 46.9982 52.0598C46.8762 52.5519 46.8414 53.2191 47.3356 53.4084C47.6202 53.4727 47.9163 53.4362 48.1804 53.3043C49.7415 52.7436 51.725 52.5827 52.8833 53.7208C54.0416 54.8588 53.9436 56.877 55.3218 57.743C56.9003 58.7439 59.365 57.5348 60.7976 58.7155C61.4116 59.2218 61.6337 60.0333 62.1366 60.6438C63.308 62.0634 65.5614 61.9948 67.436 61.7085C68.5116 61.5429 69.831 61.4317 70.4842 62.2527C70.7977 62.6407 70.887 63.1731 71.2506 63.5233C71.9038 64.1574 73.0991 63.8356 73.737 63.1849C74.1461 62.722 74.4961 62.2016 74.7777 61.6375C74.2117 61.8244 73.6086 61.796 73.2058 61.4009Z" fill="black"/>
<path opacity="0.1" d="M77.1728 58.7982C77.0325 58.9945 76.9024 59.1991 76.783 59.411C77.6191 58.7628 78.5052 58.1571 79.1301 57.3313C79.2923 57.1176 79.4379 56.8897 79.5656 56.6499C78.6968 57.3266 77.7911 57.9488 77.1728 58.7982Z" fill="black"/>
</g>
<path d="M121.16 105.651L121.813 173.556L124.861 173.083L124.208 105.651H121.16Z" fill="#3F3D56"/>
<path d="M139.449 117.954L140.102 185.86L143.15 185.386L142.497 117.954H139.449Z" fill="#3F3D56"/>
<path d="M196.39 152.257L196.377 150.953V150.177L196.262 138.234L196.081 119.561L196.051 117.949H193.003L193.018 119.502L193.114 129.503L193.155 133.833L193.19 137.339L193.246 143.401L193.281 146.976V147.355L193.327 152.054L193.366 156.196L193.614 155.898C194.014 155.414 194.404 154.922 194.786 154.422L196.39 152.257Z" fill="#3F3D56"/>
<path d="M136.074 128.956L134.332 131.786L136.074 144.678L150.879 149.082H174.829L189.199 150.026L196.044 144.934L194.86 136.189L189.634 128.956H136.074Z" fill="#DA251C"/>
<path d="M134.332 131.786L133.461 139.646C133.461 139.646 128.889 155.056 165.685 154.112C202.48 153.168 196.166 150.023 196.166 150.023L195.948 140.905C195.948 140.905 197.231 145.22 178.53 144.636C159.83 144.051 142.388 142.163 142.388 142.163C142.388 142.163 135.856 143.42 134.332 131.786Z" fill="#3F3D56"/>
<path d="M164.988 61.3349C162.889 62.3736 161.3 64.3871 160.235 66.6135C159.17 68.84 158.572 71.2841 157.981 73.7116C157.359 76.2717 156.734 78.8389 156.412 81.4628C155.837 86.1286 156.268 91.0334 158.241 95.2237C160.213 99.414 163.858 102.795 168.125 103.602C169.773 103.917 171.467 103.853 173.133 103.666C176.144 103.319 179.109 102.609 181.975 101.548C184.969 100.448 188.084 98.7538 189.417 95.633C190.19 93.823 190.255 91.7598 190.218 89.7676C190.115 84.3378 189.361 78.9457 187.973 73.7282C187.57 72.2139 187.102 70.6878 186.249 69.4125C185.395 68.1373 184.228 67.2027 183.037 66.3367C177.945 62.6102 171.252 58.2401 164.988 61.3349Z" fill="#FBBEBE"/>
<path opacity="0.05" d="M164.988 61.3349C162.889 62.3736 161.3 64.3871 160.235 66.6135C159.17 68.84 158.572 71.2841 157.981 73.7116C157.359 76.2717 156.734 78.8389 156.412 81.4628C155.837 86.1286 156.268 91.0334 158.241 95.2237C160.213 99.414 163.858 102.795 168.125 103.602C169.773 103.917 171.467 103.853 173.133 103.666C176.144 103.319 179.109 102.609 181.975 101.548C184.969 100.448 188.084 98.7538 189.417 95.633C190.19 93.823 190.255 91.7598 190.218 89.7676C190.115 84.3378 189.361 78.9457 187.973 73.7282C187.57 72.2139 187.102 70.6878 186.249 69.4125C185.395 68.1373 184.228 67.2027 183.037 66.3367C177.945 62.6102 171.252 58.2401 164.988 61.3349Z" fill="black"/>
<path d="M162.63 91.1159C163.237 92.0234 163.972 92.8218 164.807 93.482C166.88 95.0388 169.541 95.2494 172.057 95.3346C174.078 95.4009 176.394 95.2754 177.662 93.5624C178.232 92.7911 178.489 91.8068 178.72 90.8486C180.144 84.9645 181.156 78.9715 181.746 72.9211L187.512 72.9424C190.007 84.5526 189.802 96.6217 189.584 108.544L189.269 125.93L185.554 125.502C176.734 124.487 167.901 123.472 159.033 123.296C153.837 123.193 148.64 123.379 143.461 123.855L151.55 97.7196C152.599 94.3219 153.66 90.8793 153.906 87.309C154.261 82.1297 152.924 76.6618 154.777 71.8706C154.925 71.4849 155.112 71.0851 155.449 70.8839C155.787 70.6828 156.214 70.7325 156.601 70.7869C157.333 70.8934 159.569 70.7869 160.1 71.2956C160.884 72.0338 160.366 72.145 160.089 73.3352C159.595 75.4646 159.127 77.4355 159.133 79.6549C159.14 83.6842 160.289 87.9384 162.63 91.1159Z" fill="#DA251C"/>
<path d="M196.39 152.257C197.361 150.856 198.277 149.406 199.136 147.906C198.7 146.893 198.221 145.904 197.84 144.87C197.257 143.285 196.922 141.605 196.591 139.937C196.477 139.369 196.365 138.801 196.253 138.233C195.034 132.056 193.889 125.79 193.651 119.527C193.63 119.007 193.616 118.486 193.61 117.966C193.61 117.89 193.61 117.817 193.61 117.729C193.61 117.159 193.61 116.589 193.61 116.021C193.636 114.601 193.719 113.17 193.869 111.746C193.897 111.466 193.93 111.187 193.965 110.908C193.965 110.846 193.978 110.787 193.987 110.726L208.792 110.139L210.037 110.089C210.893 110.056 211.799 110.004 212.504 109.477C213.691 108.592 213.83 106.777 213.811 105.218C213.739 101.277 213.327 97.3517 212.583 93.494C212.021 90.5932 211.22 87.6285 209.421 85.3997C207.945 83.5684 205.807 82.2363 205.038 79.9579C204.753 79.1108 204.681 78.181 204.311 77.3718C203.941 76.5626 203.329 75.9687 202.752 75.3441C200.722 73.1575 199.037 70.6217 197.766 67.839C196.885 65.9083 195.929 63.7789 194.777 62.4444C194.72 62.3758 194.664 62.3119 194.605 62.2504C193.625 61.1975 192.504 60.7362 191.176 61.4531C190.937 61.5833 190.71 61.7369 190.497 61.9121C190.023 62.3051 189.59 62.7525 189.205 63.2465C187.864 64.9228 186.687 66.7467 185.694 68.6884C184.995 70.0555 184.395 71.4794 183.899 72.9473C183.508 74.107 183.185 75.2923 182.931 76.4963C182.743 77.3883 182.595 78.2898 182.478 79.1936C182.042 82.5913 182.042 86.0551 182.103 89.4954C182.169 92.6564 182.297 95.8245 182.56 98.9737C182.626 99.7356 182.698 100.497 182.778 101.257C182.938 102.76 183.135 104.259 183.37 105.752C183.464 106.323 183.56 106.893 183.667 107.461C183.693 107.612 183.721 107.764 183.749 107.913L183.762 107.976C184.05 109.296 184.273 110.632 184.431 111.977C184.448 112.146 184.461 112.314 184.47 112.481C184.507 113.255 184.501 114.03 184.453 114.803C184.402 115.716 184.324 116.627 184.285 117.54C184.285 117.701 184.285 117.859 184.27 118.013C184.259 118.475 184.27 118.936 184.27 119.397C184.314 120.501 184.435 121.6 184.631 122.684C184.998 124.7 185.633 126.648 186.514 128.466C186.597 128.637 186.682 128.805 186.767 128.97C187.871 131.114 189.264 133.08 190.285 135.273C191.166 137.247 191.824 139.329 192.245 141.475C192.39 142.183 192.528 142.893 192.659 143.604C192.861 144.74 193.042 145.885 193.227 147.03C193.244 147.144 193.264 147.267 193.283 147.371C193.529 148.89 193.789 150.402 194.122 151.885C194.315 152.749 194.533 153.601 194.788 154.438L196.39 152.257Z" fill="#464353"/>
<path d="M193.482 133.608C193.482 133.821 193.468 134.034 193.46 134.249C193.421 135.287 193.333 136.322 193.196 137.351C193.016 138.755 192.7 140.134 192.254 141.465C191.958 142.341 191.581 143.182 191.13 143.976C190.73 144.68 190.261 145.336 189.732 145.932C188.426 147.409 186.545 147.88 184.725 148.502C183.887 148.765 183.078 149.125 182.31 149.574C182.173 149.657 182.038 149.746 181.907 149.841L179.63 151.481C178.92 151.989 178.195 152.517 177.707 153.272C177.627 153.4 177.555 153.534 177.49 153.672C177.181 154.367 176.956 155.101 176.819 155.858C175.635 161.219 174.448 166.586 173.636 172.027C173.581 172.387 173.529 172.749 173.473 173.111L173.453 173.225C173.443 173.198 173.432 173.172 173.418 173.147C167.592 176.975 161.55 180.429 155.325 183.195L153.973 170.892C153.832 169.892 153.786 168.878 153.834 167.868C153.962 166.276 154.559 164.766 154.72 163.178C154.873 161.624 154.602 160.055 153.943 158.666C153.686 158.127 153.364 157.597 153.305 156.994C153.246 156.39 153.566 155.839 154.123 155.778C154.559 155.252 154.594 154.535 154.465 153.826C154.397 153.455 154.295 153.093 154.16 152.744C153.79 151.755 153.322 150.679 153.64 149.668C153.724 149.485 153.762 149.281 153.749 149.077C153.751 149.064 153.751 149.052 153.749 149.039C153.675 148.774 153.385 148.658 153.235 148.433C152.952 148.015 153.235 147.444 153.409 146.962C153.579 146.443 153.677 145.9 153.701 145.35C153.725 145.045 153.742 144.738 153.773 144.435C153.815 144.025 153.883 143.619 153.975 143.219C154.504 140.952 155.776 138.973 157.553 137.654C158.399 137.034 159.342 136.582 160.207 135.997C161.092 135.349 161.937 134.637 162.737 133.868C164.654 132.133 166.648 130.497 168.717 128.961C170.943 127.309 173.249 125.788 175.624 124.404C176.132 124.106 176.64 123.816 177.148 123.533C177.701 123.218 178.257 122.919 178.818 122.636C180.612 121.707 182.648 122.054 184.631 122.674C185.463 122.932 186.284 123.24 187.076 123.519C187.85 123.792 188.595 124.156 189.297 124.603C191.054 125.724 192.506 127.38 193.109 129.472C193.11 129.485 193.11 129.499 193.109 129.512C193.492 130.823 193.516 132.228 193.482 133.608Z" fill="#F86D70"/>
<path opacity="0.1" d="M193.482 133.608C193.482 133.821 193.468 134.034 193.46 134.249C193.421 135.287 193.333 136.322 193.196 137.351C193.016 138.755 192.7 140.134 192.254 141.465C191.958 142.341 191.581 143.182 191.13 143.976C190.73 144.68 190.261 145.336 189.732 145.932C188.426 147.409 186.545 147.88 184.725 148.502C183.887 148.765 183.078 149.125 182.31 149.574C182.173 149.657 182.038 149.746 181.907 149.841L179.63 151.481C178.92 151.989 178.195 152.517 177.707 153.272C177.627 153.4 177.555 153.534 177.49 153.672C177.181 154.367 176.956 155.101 176.819 155.858C175.635 161.219 174.448 166.586 173.636 172.027C173.581 172.387 173.529 172.749 173.473 173.111L173.453 173.225C173.443 173.198 173.432 173.172 173.418 173.147C167.592 176.975 161.55 180.429 155.325 183.195L153.973 170.892C153.832 169.892 153.786 168.878 153.834 167.868C153.962 166.276 154.559 164.766 154.72 163.178C154.873 161.624 154.602 160.055 153.943 158.666C153.686 158.127 153.364 157.597 153.305 156.994C153.246 156.39 153.566 155.839 154.123 155.778C154.559 155.252 154.594 154.535 154.465 153.826C154.397 153.455 154.295 153.093 154.16 152.744C153.79 151.755 153.322 150.679 153.64 149.668C153.724 149.485 153.762 149.281 153.749 149.077C153.751 149.064 153.751 149.052 153.749 149.039C153.675 148.774 153.385 148.658 153.235 148.433C152.952 148.015 153.235 147.444 153.409 146.962C153.579 146.443 153.677 145.9 153.701 145.35C153.725 145.045 153.742 144.738 153.773 144.435C153.815 144.025 153.883 143.619 153.975 143.219C154.504 140.952 155.776 138.973 157.553 137.654C158.399 137.034 159.342 136.582 160.207 135.997C161.092 135.349 161.937 134.637 162.737 133.868C164.654 132.133 166.648 130.497 168.717 128.961C170.943 127.309 173.249 125.788 175.624 124.404C176.132 124.106 176.64 123.816 177.148 123.533C177.701 123.218 178.257 122.919 178.818 122.636C180.612 121.707 182.648 122.054 184.631 122.674C185.463 122.932 186.284 123.24 187.076 123.519C187.85 123.792 188.595 124.156 189.297 124.603C191.054 125.724 192.506 127.38 193.109 129.472C193.11 129.485 193.11 129.499 193.109 129.512C193.492 130.823 193.516 132.228 193.482 133.608Z" fill="black"/>
<path d="M172.809 94.4168C172.787 94.3619 172.755 94.3123 172.714 94.2711C172.674 94.23 172.627 94.198 172.575 94.1773C172.523 94.1565 172.468 94.1473 172.413 94.1502C172.358 94.1531 172.304 94.1681 172.255 94.1943C172.205 94.2204 172.161 94.2572 172.125 94.3025C172.088 94.3477 172.061 94.4004 172.044 94.4574C172.027 94.5144 172.021 94.5746 172.026 94.6343C172.031 94.694 172.047 94.752 172.073 94.8048L171.855 94.9208L178.347 109.382L179.521 108.76L173.028 94.289L172.809 94.4168Z" fill="#3F3D56"/>
<path d="M180.925 79.2694C188.621 79.2694 194.86 72.4898 194.86 64.1268C194.86 55.7637 188.621 48.9841 180.925 48.9841C173.23 48.9841 166.991 55.7637 166.991 64.1268C166.991 72.4898 173.23 79.2694 180.925 79.2694Z" fill="#FBBEBE"/>
<path d="M199.317 54.7525C199.251 53.5488 199.087 52.3538 198.825 51.1821C198.006 47.3563 196.51 43.5895 193.934 40.8426C193.776 40.1709 193.586 39.5084 193.366 38.8575C193.362 38.8413 193.357 38.8255 193.351 38.8101C192.583 36.5169 191.472 34.377 190.063 32.4762C189.247 31.3737 188.189 30.2853 186.887 30.2427C186.521 30.2285 186.133 30.2971 185.798 30.1149C185.551 29.9417 185.344 29.7104 185.191 29.4383C184.546 28.5528 183.691 27.8757 182.718 27.48C181.744 27.0842 180.69 26.985 179.669 27.1929L179.534 27.2236C179.458 27.2402 179.382 27.2591 179.316 27.2804C179.251 27.3017 179.133 27.3372 179.042 27.368C179.142 27.5478 179.24 27.73 179.336 27.9145C179.594 28.4145 179.834 28.9256 180.054 29.4477C180.237 29.8831 180.406 30.3255 180.562 30.7751C178.332 31.0519 176.516 32.772 174.857 34.4093L170.951 38.2612C170.944 38.2677 170.938 38.2748 170.932 38.2825L170.819 38.4008C170.79 38.4316 170.762 38.4623 170.736 38.4954C170.725 38.5053 170.716 38.5164 170.708 38.5286C170.675 38.5664 170.644 38.6067 170.614 38.6469C170.56 38.7214 170.511 38.8005 170.468 38.8835C170.447 38.919 170.428 38.9562 170.411 38.9947C170.405 39.006 170.4 39.0179 170.396 39.0302C170.382 39.0624 170.37 39.0956 170.359 39.1295C170.358 39.1342 170.358 39.1391 170.359 39.1437C170.353 39.1631 170.348 39.1829 170.344 39.2029C170.299 39.3694 170.313 39.5478 170.381 39.7045L172.957 39.7353H173.259C173.272 40.1091 173.283 40.4853 173.296 40.8591C172.888 41.1916 172.495 41.5469 172.121 41.9238C171.712 42.3347 171.329 42.7741 170.973 43.2394C168.65 46.2892 167.437 50.2286 167.315 54.1941C167.315 54.3172 167.315 54.4307 167.315 54.5585C167.315 54.9205 167.315 55.2825 167.315 55.6421C167.315 55.8787 167.335 56.1153 167.352 56.3519C167.353 56.6601 167.429 56.9627 167.57 57.2297C167.589 57.2596 167.609 57.288 167.631 57.3149C167.762 57.469 167.918 57.5943 168.093 57.684L168.28 57.7834C168.374 57.8331 168.463 57.8804 168.55 57.9348C169.371 58.4388 169.856 59.4112 170.603 60.0359C170.647 60.0714 170.69 60.1069 170.734 60.1376L170.832 60.2086L170.893 60.2512L170.975 60.3032C171.03 60.3388 171.086 60.3712 171.143 60.4002L171.247 60.457H171.265C171.352 60.4996 171.439 60.5398 171.528 60.5753L171.652 60.6226L171.689 60.6368C171.724 60.6487 171.761 60.6629 171.798 60.6723C171.872 60.696 171.945 60.7173 172.016 60.7362L172.234 60.7883C172.319 60.8048 172.406 60.8214 172.493 60.8332L172.621 60.8522L172.752 60.8663C172.96 60.8869 173.169 60.8987 173.379 60.9018C174.039 60.8974 174.699 60.8476 175.354 60.7528L180.91 60.043C182.171 59.8844 183.458 59.7259 184.701 60.0051C185.755 60.2417 186.726 60.7859 187.749 61.1716C187.98 61.2591 188.21 61.3396 188.443 61.4082C188.528 61.4342 188.615 61.4626 188.703 61.4863L188.822 61.5194L189.101 61.5927C189.201 61.6188 189.301 61.6448 189.401 61.6661C189.543 61.6992 189.682 61.7276 189.824 61.756C189.92 61.7773 190.018 61.7938 190.116 61.8128H190.135L190.414 61.8601H190.481L190.688 61.8909C190.788 61.9074 190.888 61.9216 190.991 61.9334C191.213 61.9634 191.435 61.9894 191.657 62.0115C192.016 62.0494 192.378 62.0778 192.746 62.1014L193.107 62.1251L193.469 62.144L194.557 62.1961H194.605H194.757C195.21 62.2303 195.665 62.2049 196.112 62.1204C196.19 62.1038 196.266 62.0849 196.343 62.0612C196.419 62.0375 196.482 62.0139 196.56 61.9855C197.377 61.6448 197.973 60.8616 198.387 60.024C198.474 59.8466 198.555 59.6691 198.629 59.4869C198.703 59.3048 198.77 59.1202 198.831 58.9357C198.907 58.6991 198.973 58.4743 199.029 58.2377C199.047 58.1738 199.062 58.1099 199.075 58.0437C199.088 57.9774 199.118 57.8473 199.136 57.7479C199.19 57.4758 199.232 57.2014 199.262 56.9245C199.262 56.837 199.282 56.7471 199.29 56.6595C199.31 56.4229 199.325 56.2029 199.334 55.971C199.334 55.7959 199.334 55.6185 199.334 55.441C199.332 55.2494 199.317 54.9962 199.317 54.7525ZM193.734 40.6272C193.558 40.4474 193.377 40.2747 193.194 40.1115C193.398 40.251 193.579 40.4252 193.732 40.6272H193.734Z" fill="#464353"/>
<path d="M154.182 63.294C152.543 63.0739 150.916 62.2931 149.299 62.6764C148.286 62.913 147.415 63.5968 146.605 64.2995C143.591 66.9248 141.028 70.1089 139.035 73.7045C138.697 74.2421 138.46 74.8467 138.336 75.4838C138.232 76.222 138.417 76.972 138.637 77.6795C140.126 82.4612 143.311 86.4551 144.761 91.2511C146.285 96.2955 145.756 101.808 144.633 106.976C143.24 113.355 140.977 119.472 137.918 125.123C137.503 125.964 136.983 126.738 136.372 127.423C135.58 128.251 134.515 128.843 134.045 129.926C133.827 130.4 133.764 130.939 133.609 131.445C133.174 132.865 132.12 134.081 132.018 135.579C131.942 136.722 132.44 137.803 132.743 138.891C133.253 140.761 133.199 142.759 132.588 144.593C131.484 147.882 128.597 150.873 129.436 154.254C131.306 153.67 133.379 152.91 134.26 151.024C134.572 150.357 134.726 149.562 135.251 149.075C136.298 148.107 138.081 148.982 139.194 148.093C140.034 147.416 140.065 146.03 139.69 144.965C139.316 143.9 138.671 142.963 138.384 141.868C137.883 139.892 138.684 137.803 138.536 135.761C138.467 134.815 138.199 133.908 138.179 132.967C138.142 131.138 139.074 129.418 140.313 128.175C141.552 126.933 143.083 126.11 144.589 125.298L150.285 122.223C152.351 121.11 154.615 119.755 155.293 117.36C155.549 116.464 155.552 115.508 155.565 114.571C155.758 100.254 159.059 86.2256 162.34 72.3583C162.85 70.2099 163.368 68.0521 164.126 65.9889C164.883 63.9257 166.366 62.2695 167.122 60.353C162.739 59.7946 158.735 63.9139 154.182 63.294Z" fill="#464353"/>
<path d="M185.58 153.111C186.083 156.424 186.39 159.807 186.63 163.174C182.711 166.704 178.491 169.775 174.204 172.624C173.96 172.787 173.714 172.948 173.468 173.097L173.449 173.211C173.439 173.184 173.427 173.158 173.414 173.132C173.081 172.351 172.5 171.728 171.777 171.377C170.17 167.71 168.564 164.042 166.96 160.375C166.09 158.394 165.219 156.395 164.783 154.259C164.783 154.214 164.764 154.166 164.757 154.121C164.426 152.465 164.35 150.745 164.13 149.067C164.019 148.107 163.82 147.16 163.536 146.242C163.274 145.426 162.915 144.634 162.597 143.836C162.205 142.852 161.877 141.856 161.861 140.793C161.861 140.455 161.881 140.084 161.729 139.8C161.566 139.555 161.364 139.344 161.134 139.175C160.847 138.898 160.629 138.546 160.501 138.153C160.373 137.759 160.339 137.337 160.403 136.925C159.096 136.998 158.36 138.524 157.836 139.819C157.359 141.084 156.732 142.277 155.972 143.368C155.418 144.147 154.713 144.784 153.908 145.235C153.836 145.272 153.764 145.31 153.69 145.343C151.872 146.214 149.749 145.906 147.779 145.514C146.057 145.171 144.276 144.745 142.891 143.581L142.743 143.453C142.333 143.083 141.967 142.658 141.654 142.189C140.494 140.467 139.98 138.198 139.695 136.038C139.669 135.834 139.642 135.631 139.619 135.427C139.421 133.901 139.366 132.357 139.455 130.818C139.481 130.44 139.518 130.061 139.564 129.685C139.595 129.448 139.627 129.193 139.664 128.947C139.663 128.94 139.663 128.932 139.664 128.925C139.721 128.535 139.782 128.142 139.843 127.742C140.061 126.401 140.278 125.024 140.931 123.869C141.361 123.151 141.904 122.52 142.534 122.005C142.769 121.804 143.011 121.612 143.255 121.427C143.651 121.129 144.058 120.845 144.472 120.578C145.512 119.901 146.605 119.323 147.738 118.851C148.007 118.737 148.282 118.631 148.556 118.529C149.623 118.117 150.77 118.018 151.883 118.243C152.869 118.398 153.866 118.461 154.861 118.432C157.415 118.378 159.98 117.848 162.53 117.505C166.07 117.031 169.874 116.975 172.961 118.924C173.109 119.016 173.253 119.113 173.396 119.215C174.921 120.299 176.149 121.818 177.139 123.514C177.357 123.872 177.546 124.238 177.734 124.61C178.165 125.462 178.555 126.339 178.903 127.236C179.108 127.677 179.219 128.162 179.227 128.656C179.222 128.75 179.21 128.843 179.192 128.935C179.134 129.271 179.016 129.597 178.975 129.938C178.837 131.228 179.845 132.304 180.222 133.532C180.466 134.332 180.44 135.188 180.577 136.031C180.775 137.214 181.309 138.278 181.788 139.343C182.545 141.057 183.192 142.825 183.725 144.636C184.104 145.897 184.429 147.177 184.714 148.469C184.807 148.884 184.895 149.299 184.977 149.716C185.215 150.861 185.408 151.982 185.58 153.111Z" fill="#F86D70"/>
<path d="M208.794 118.073V119.729L208.513 119.724L208.2 119.719L204.699 119.672L196.072 119.549L193.651 119.516L193.024 119.506L189.39 119.457L184.27 119.383L173.405 119.23L154.552 118.965L147.748 118.87L145.018 118.832L142.506 118.797L140.94 118.773L139.457 118.752L128.464 118.598L125.416 118.555L124.752 118.546L124.321 117.337L121.188 108.556L120.615 106.952L121.051 105.059L123.01 106.479L124.217 106.642L144.075 109.325L147.803 109.829L155.706 110.899L163.449 111.944L166.484 112.354L184.444 114.781L189.462 115.46L193.617 116.021L208.387 118.018L208.794 118.073Z" fill="#3F3D56"/>
<path d="M121.051 105.059L124.97 116.18L208.794 118.073V106.006L121.051 105.059Z" fill="#504F60"/>
<path d="M125.405 117.363L126.059 185.268L129.107 184.795L128.454 117.363H125.405Z" fill="#3F3D56"/>
<path d="M208.513 119.721H208.2C207.692 123.955 206.852 128.134 205.689 132.212L204.699 119.672L204.657 119.137L208.32 118.678L208.441 118.664L208.513 119.721Z" fill="#3F3D56"/>
<path d="M196.602 111.684L164.705 112.394L154.798 108.845L181.361 107.189L196.602 111.684Z" fill="white"/>
<path d="M156.59 97.8853C156.252 98.0262 155.952 98.2583 155.719 98.5596C155.537 98.886 155.426 99.2535 155.395 99.6338L154.859 103.105C154.778 103.422 154.792 103.76 154.901 104.068C155.04 104.359 155.445 104.51 155.647 104.269C155.621 104.948 155.676 105.672 156.039 106.226C156.403 106.779 157.165 107.07 157.679 106.685C157.759 106.827 157.868 106.949 157.996 107.042C158.124 107.135 158.269 107.196 158.422 107.222C158.574 107.247 158.729 107.237 158.877 107.191C159.025 107.144 159.163 107.064 159.279 106.954C158.97 107.068 158.948 107.581 159.168 107.842C159.414 108.078 159.728 108.214 160.056 108.227C163.882 108.813 167.783 108.28 171.356 106.682C171.694 106.531 170.805 102.009 170.716 101.546C170.498 100.455 170.39 99.1227 169.543 98.3892C167.518 96.6336 163.921 96.2882 161.454 96.4964C159.769 96.6349 158.121 97.1056 156.59 97.8853Z" fill="#FBBEBE"/>
<path opacity="0.1" d="M189.044 98.4106C181.169 98.5739 173.131 98.7135 165.615 96.1511C166.333 99.1744 166.283 102.353 165.471 105.348L202.293 108.66C203.854 108.8 210.327 109.595 211.849 109.195C213.371 108.795 199.079 103.68 199.656 102.097C201.243 97.7363 206.56 95.181 202.731 95.0177C197.897 94.8095 193.915 98.3112 189.044 98.4106Z" fill="black"/>
<path d="M189.262 98.8838C181.387 99.047 173.349 99.1866 165.833 96.6242C166.551 99.6476 166.501 102.826 165.689 105.821L202.511 109.133C204.072 109.273 210.545 110.08 212.067 109.668C213.589 109.257 213.231 107.229 213.808 105.646C215.396 101.285 206.778 95.6541 202.948 95.4909C198.115 95.2826 194.133 98.7844 189.262 98.8838Z" fill="#464353"/>
<path d="M176.741 99.5415C177.079 99.6822 177.379 99.9143 177.612 100.216C177.793 100.543 177.905 100.91 177.938 101.29L178.474 104.761C178.554 105.079 178.54 105.416 178.432 105.724C178.293 106.015 177.886 106.166 177.686 105.925C177.71 106.604 177.657 107.328 177.294 107.882C176.93 108.435 176.168 108.726 175.652 108.341C175.571 108.483 175.463 108.605 175.335 108.698C175.207 108.791 175.062 108.852 174.909 108.878C174.757 108.904 174.602 108.893 174.453 108.847C174.305 108.801 174.168 108.72 174.052 108.611C174.361 108.724 174.385 109.238 174.165 109.498C173.918 109.734 173.603 109.87 173.274 109.883C169.449 110.47 165.549 109.936 161.977 108.338C161.639 108.187 162.525 103.666 162.617 103.202C162.835 102.111 162.943 100.779 163.79 100.045C165.813 98.2899 169.412 97.9444 171.879 98.1526C173.564 98.2915 175.211 98.7621 176.741 99.5415Z" fill="#FBBEBE"/>
<path d="M124.704 92.0059C123.982 93.0186 123.256 94.0525 122.791 95.2332C121.9 97.4857 122.031 100.036 122.179 102.483C122.22 103.193 122.272 103.917 122.614 104.506C122.91 104.951 123.3 105.312 123.751 105.559C125.636 106.723 127.844 107.07 129.999 107.331C133.3 107.728 136.612 107.97 139.936 108.057C148.171 108.275 156.531 107.544 164.552 109.571C163.56 107.932 163.562 105.762 164.117 103.893C164.672 102.024 165.741 100.396 166.788 98.7941C163.118 97.5306 159.181 99.5039 155.336 99.3075C151.389 99.1064 147.735 96.6268 143.784 96.6292C142.934 96.6292 142.07 96.7451 141.245 96.5227C140.42 96.3003 139.621 95.6236 139.545 94.7032C140.598 94.9611 141.598 93.9816 142.033 92.9074C142.469 91.8332 142.547 90.6194 142.969 89.5381C144.021 86.8479 146.862 85.601 148.63 83.3864C148.909 83.0363 149.172 82.6222 149.164 82.1585C149.122 81.7656 148.97 81.3963 148.728 81.1008C147.259 78.9714 145.044 77.7884 143.204 76.1322C142.564 75.5548 141.273 73.3781 140.555 73.177C139.222 72.8055 138.092 74.8971 137.226 75.9168C132.851 81.0827 128.677 86.4457 124.704 92.0059Z" fill="#464353"/>
<path opacity="0.07" d="M168.485 91.405C169.036 91.8498 169.527 92.378 169.941 92.9737C170.148 93.2729 170.295 93.6154 170.373 93.9795C170.451 94.3436 170.459 94.7214 170.396 95.089C170.329 94.4032 170.469 93.7122 170.797 93.1215C171.124 92.5307 171.62 92.0725 172.21 91.8167L168.485 91.405Z" fill="black"/>
<g opacity="0.1">
<path opacity="0.1" d="M180.56 29.3578C180.303 28.6183 180.008 27.8955 179.676 27.1929C179.461 27.2378 179.248 27.2971 179.04 27.3703C179.413 28.0446 179.75 28.7422 180.048 29.4595C180.216 29.4122 180.385 29.3791 180.56 29.3578Z" fill="black"/>
<path opacity="0.1" d="M193.192 38.687C193.251 38.7391 193.307 38.7982 193.364 38.8526C193.36 38.8373 193.355 38.8223 193.349 38.8077C193.299 38.7682 193.247 38.728 193.192 38.687Z" fill="black"/>
<path opacity="0.1" d="M172.952 39.7282C173.065 39.6312 173.17 39.5294 173.292 39.4348L173.257 38.3109L170.932 38.2849C170.555 38.6611 170.154 39.2006 170.377 39.7045L172.952 39.7282Z" fill="black"/>
<path opacity="0.1" d="M198.374 58.647C197.96 59.4845 197.364 60.2701 196.547 60.6084C195.918 60.8687 195.226 60.845 194.553 60.8119C192.258 60.7102 189.924 60.599 187.755 59.7732C186.741 59.3852 185.77 58.8434 184.707 58.6044C183.464 58.3252 182.177 58.4837 180.917 58.6446L175.36 59.3544C173.721 59.5626 171.894 59.7188 170.586 58.6257C169.837 58.001 169.353 57.0286 168.532 56.527C168.186 56.3141 167.775 56.1768 167.55 55.8172C167.409 55.5501 167.334 55.2476 167.333 54.9394C167.315 54.691 167.304 54.4425 167.296 54.1941C167.272 54.9159 167.284 55.6386 167.333 56.359C167.334 56.6672 167.409 56.9698 167.55 57.2368C167.768 57.5941 168.186 57.7313 168.532 57.9466C169.353 58.4482 169.839 59.4207 170.586 60.0453C171.892 61.1384 173.721 60.9917 175.36 60.774L180.917 60.0642C182.177 59.9033 183.464 59.7448 184.707 60.024C185.761 60.2606 186.732 60.8048 187.755 61.1928C189.933 62.0186 192.258 62.1393 194.553 62.2315C195.226 62.2623 195.918 62.2883 196.547 62.028C197.364 61.6897 197.96 60.9042 198.374 60.0666C199.175 58.4459 199.399 56.6075 199.314 54.7548C199.268 56.1115 198.947 57.4404 198.374 58.647Z" fill="black"/>
</g>
<path opacity="0.1" d="M180.496 30.8792L183.545 33.955C183.545 33.955 180.932 32.772 180.496 30.8792Z" fill="black"/>
</g>
<defs>
<clipPath id="clip0">
<rect width="214" height="190" fill="white"/>
</clipPath>
</defs>
</svg>
